<?xml version="1.0" standalone="no"?>
<!DOCTYPE svg PUBLIC "-//W3C//DTD SVG 20010904//EN"
 "http://www.w3.org/TR/2001/REC-SVG-20010904/DTD/svg10.dtd">
<svg version="1.0" xmlns="http://www.w3.org/2000/svg"
 width="260.000000pt" height="260.000000pt" viewBox="0 0 260.000000 260.000000"
 preserveAspectRatio="xMidYMid meet">
<metadata>
Created by potrace 1.14, written by Peter Selinger 2001-2017
</metadata>
<g transform="translate(0.000000,260.000000) scale(0.100000,-0.100000)"
fill="#000000" stroke="none">
<path d="M2115 2225 c-38 -37 -37 -88 1 -122 33 -30 78 -30 109 2 52 51 16
145 -55 145 -19 0 -40 -9 -55 -25z"/>
<path d="M1224 1840 l0 -361 70 3 71 3 0 192 -1 192 26 11 c14 7 51 15 82 17
52 5 58 4 65 -15 5 -11 8 -107 7 -212 l0 -191 70 3 71 3 -1 215 c-1 240 -4
258 -64 298 -29 20 -44 23 -90 20 -44 -4 -111 -27 -160 -55 -3 -2 -6 50 -5
114 l0 118 -70 3 -71 3 0 -361z"/>
<path d="M1863 2147 l-63 -20 -1 -43 c-1 -24 -2 -50 -3 -56 0 -8 -20 -15 -47
-18 l-45 -5 0 -45 1 -45 43 1 c24 1 42 -3 43 -10 0 -6 2 -88 3 -182 1 -146 4
-175 19 -198 27 -41 80 -59 152 -52 101 9 102 10 100 69 -1 29 -6 51 -11 51
-5 -1 -30 -5 -56 -8 -39 -6 -48 -4 -56 11 -5 10 -8 86 -8 168 l1 150 50 0 c54
0 62 8 64 68 1 26 0 27 -57 27 l-58 0 0 76 c1 42 -1 77 -4 79 -3 1 -33 -7 -67
-18z"/>
<path d="M405 2004 c-76 -26 -114 -92 -101 -177 9 -61 47 -98 135 -132 77 -29
99 -52 81 -85 -16 -29 -53 -34 -136 -18 l-74 14 0 -56 0 -57 50 -11 c72 -17
191 -9 231 14 71 42 96 154 50 228 -21 33 -41 45 -149 91 -57 24 -69 48 -41
76 18 18 29 20 78 16 31 -4 70 -9 86 -12 l30 -7 -1 54 -1 53 -44 13 c-53 15
-144 14 -194 -4z"/>
<path d="M810 2008 c-30 -5 -60 -14 -65 -18 -10 -8 -13 -96 -3 -105 2 -3 35 2
72 9 117 25 166 9 166 -56 0 -28 0 -28 -67 -28 -82 0 -140 -15 -172 -43 -79
-72 -63 -240 26 -282 47 -23 143 -14 180 15 32 25 43 25 43 0 0 -18 7 -20 66
-20 l65 0 -2 213 c-2 238 -9 271 -72 303 -39 21 -159 27 -237 12z m170 -344
c0 -70 -5 -76 -72 -88 -50 -9 -78 18 -78 73 0 56 20 73 100 84 45 5 50 -1 50
-69z"/>
<path d="M2100 1745 l0 -265 70 0 70 0 0 265 0 265 -70 0 -70 0 0 -265z"/>
<path d="M848 1312 c-21 -4 -33 -41 -24 -70 8 -23 47 -33 68 -18 47 36 15 101
-44 88z"/>
<path d="M974 1306 c-25 -27 -25 -54 -3 -75 27 -25 29 -25 57 -5 25 17 29 56
8 73 -21 17 -50 20 -62 7z"/>
<path d="M2241 1184 c-25 -9 -63 -27 -85 -41 -47 -30 -177 -160 -203 -203 -19
-32 -33 -36 -64 -19 -32 17 -42 56 -28 112 6 26 9 50 7 52 -2 3 -19 8 -36 11
-22 5 -33 2 -36 -7 -3 -8 -12 -40 -21 -73 -20 -73 -51 -106 -100 -106 -47 0
-101 23 -115 49 -10 19 -8 22 19 27 24 5 30 11 26 28 -2 11 -4 26 -4 32 -1 6
-19 14 -41 18 -34 5 -58 16 -150 68 -65 36 -113 47 -195 44 -46 -1 -87 -5 -90
-8 -4 -3 -3 -21 0 -39 l6 -34 92 0 c82 0 98 -3 152 -30 33 -16 60 -34 59 -40
-1 -17 -139 -81 -213 -98 -81 -20 -186 -22 -221 -4 -30 15 -37 58 -20 125 6
24 9 46 7 48 -2 2 -19 6 -39 9 l-36 6 -17 -77 c-21 -97 -45 -124 -108 -124
-41 0 -174 37 -218 60 -21 12 -25 7 -34 -41 -6 -34 -5 -37 22 -43 43 -11 111
-47 117 -63 8 -19 -8 -55 -33 -77 -38 -35 -146 -64 -234 -64 -199 0 -275 78
-231 237 16 57 15 60 -28 79 -27 11 -27 11 -48 -54 -51 -165 -3 -273 144 -324
54 -19 186 -28 241 -16 110 23 190 61 229 106 24 29 31 45 38 94 2 13 12 20
28 21 57 3 97 16 122 40 20 19 27 21 32 10 11 -29 68 -48 147 -48 102 0 201
26 305 79 46 24 88 44 92 44 5 0 14 -16 21 -35 17 -49 79 -84 157 -88 62 -4
82 3 127 43 26 22 30 23 40 9 19 -25 71 -48 129 -56 63 -9 268 -10 319 -2 137
23 220 91 233 191 8 65 -37 147 -94 170 -43 18 -122 19 -169 2z m157 -97 c26
-27 34 -71 19 -105 -12 -26 -55 -54 -111 -72 -40 -13 -286 -22 -286 -10 0 14
103 121 149 154 92 68 181 80 229 33z"/>
<path d="M1135 664 c-16 -7 -104 -39 -194 -71 -153 -54 -186 -73 -165 -92 7
-7 135 33 219 69 11 4 56 21 100 36 94 32 104 39 85 58 -13 11 -20 11 -45 0z"/>
<path d="M277 492 c-21 -23 -22 -46 -1 -66 30 -31 84 -9 84 34 0 24 -26 50
-49 50 -10 0 -25 -8 -34 -18z"/>
<path d="M416 494 c-19 -18 -21 -55 -4 -72 18 -18 53 -15 71 6 22 24 21 38 -3
62 -24 24 -43 25 -64 4z"/>
</g>
</svg>
